 <svg version="1.0" xmlns="http://www.w3.org/2000/svg" width="700.000000pt" height="566.000000pt" viewBox="0 0 700.000000 566.000000" preserveAspectRatio="xMidYMid meet">
<metadata>
Created by potrace 1.12, written by Peter Selinger 2001-2015
</metadata>
<g transform="translate(0.000000,566.000000) scale(0.100000,-0.100000)" fill="#fff" stroke="none">
<path d="M1535 5503 c-42 -6 -293 -91 -319 -108 -11 -7 -45 -23 -75 -35 -29
-11 -70 -34 -90 -50 -19 -17 -40 -30 -46 -30 -21 0 -232 -209 -250 -247 -10
-21 -28 -53 -42 -71 -13 -17 -31 -54 -39 -82 -8 -27 -19 -52 -24 -55 -15 -10
-46 -76 -54 -115 -3 -19 -17 -51 -31 -72 -13 -20 -30 -58 -36 -85 -7 -26 -24
-75 -40 -108 -15 -33 -33 -87 -39 -120 -7 -33 -23 -82 -37 -109 -13 -26 -29
-76 -34 -110 -6 -33 -21 -85 -35 -115 -13 -30 -31 -98 -40 -150 -8 -53 -24
-115 -34 -139 -21 -47 -31 -99 -55 -274 -9 -65 -22 -133 -30 -152 -8 -19 -19
-99 -25 -178 -6 -79 -16 -195 -22 -258 -12 -130 -11 -704 2 -765 4 -22 11 -98
15 -170 5 -87 13 -147 26 -180 10 -27 27 -90 39 -138 11 -50 30 -102 44 -120
13 -18 28 -47 34 -65 13 -39 80 -108 154 -160 50 -35 57 -37 129 -36 63 1 86
6 140 31 35 17 78 34 96 38 18 3 48 19 68 35 20 16 46 32 58 36 12 4 40 21 62
39 22 18 51 38 65 45 14 7 34 21 45 32 36 33 189 163 225 190 19 14 78 67 130
117 52 50 99 91 103 91 5 0 30 20 55 45 26 24 58 55 72 68 14 13 41 32 60 42
19 10 50 31 68 46 18 16 39 29 46 29 7 0 34 14 59 31 26 17 73 38 105 46 31 8
73 25 92 38 20 14 64 29 105 36 39 6 78 15 87 20 90 47 353 69 836 69 469 0
451 -5 489 123 8 29 23 63 33 77 9 14 24 46 32 71 9 26 31 69 49 97 19 28 52
80 74 117 22 36 54 81 70 99 17 19 48 55 70 81 56 68 193 203 251 248 27 20
67 52 88 70 43 35 108 75 174 106 24 12 57 32 75 45 18 13 58 32 90 41 33 9
83 28 112 41 29 14 86 31 127 39 40 8 97 23 125 35 121 46 569 41 724 -9 37
-11 90 -26 119 -31 29 -5 87 -25 129 -44 114 -51 149 -60 166 -46 22 19 18 87
-10 171 -14 41 -34 122 -44 180 -11 58 -28 123 -39 145 -11 21 -27 76 -37 122
-9 46 -27 104 -41 130 -13 26 -30 77 -37 113 -8 37 -24 80 -35 97 -12 16 -27
54 -33 83 -6 30 -24 77 -39 104 -16 28 -33 70 -40 95 -6 25 -22 61 -34 80 -13
19 -31 58 -40 87 -9 28 -24 57 -32 64 -9 7 -22 26 -31 43 -43 83 -246 286
-286 286 -6 0 -20 9 -31 19 -31 29 -211 119 -254 127 -20 4 -73 20 -117 36
-73 28 -94 31 -241 35 -88 3 -195 2 -237 -2 -66 -6 -83 -11 -116 -38 -21 -18
-52 -40 -67 -50 -84 -51 -132 -84 -153 -104 -13 -12 -46 -27 -72 -32 -27 -6
-66 -22 -87 -36 -28 -18 -66 -29 -142 -40 -57 -9 -131 -26 -164 -38 -59 -21
-73 -22 -486 -22 -409 0 -428 1 -495 22 -38 12 -115 29 -170 38 -61 10 -123
27 -160 44 -33 16 -72 31 -86 35 -14 3 -43 19 -64 36 -21 16 -42 30 -46 30 -5
0 -26 15 -46 34 -21 18 -56 43 -78 55 -22 12 -56 32 -75 44 -33 21 -47 22
-230 24 -107 0 -208 -1 -225 -4z"></path>
<path d="M5175 3409 c-33 -5 -85 -18 -115 -29 -30 -11 -93 -27 -140 -34 -63
-10 -99 -22 -135 -45 -27 -17 -56 -31 -65 -31 -9 0 -34 -10 -55 -21 -22 -12
-60 -32 -85 -44 -26 -13 -52 -31 -60 -40 -7 -9 -34 -28 -59 -42 -85 -49 -123
-84 -282 -253 -83 -88 -149 -170 -149 -185 0 -6 -14 -27 -30 -47 -17 -20 -37
-56 -46 -80 -8 -24 -26 -59 -40 -79 -14 -20 -31 -59 -38 -85 -7 -27 -23 -69
-36 -93 -13 -26 -30 -93 -41 -160 -10 -64 -26 -141 -34 -171 -20 -73 -20 -315
-1 -388 8 -29 22 -110 31 -180 13 -99 25 -144 51 -203 19 -42 34 -83 34 -91 0
-19 81 -178 113 -220 13 -18 29 -48 35 -66 13 -39 122 -165 243 -282 131 -126
169 -160 183 -160 7 0 32 -14 56 -31 24 -17 59 -39 79 -48 20 -9 51 -26 68
-39 18 -13 55 -30 83 -38 28 -8 65 -23 83 -34 17 -10 98 -35 178 -54 145 -36
146 -36 371 -36 178 0 235 3 269 16 24 8 77 24 117 35 41 11 95 30 120 43 26
13 69 28 96 35 27 7 63 23 81 36 17 14 47 30 66 37 18 6 53 26 77 45 24 18 47
33 52 33 29 0 263 217 335 310 22 29 52 66 66 84 15 17 36 49 47 72 11 22 27
46 36 53 8 7 25 38 36 68 11 31 31 74 44 97 13 22 29 64 36 91 6 28 20 64 29
80 10 17 21 41 24 55 64 277 52 807 -22 980 -16 36 -31 79 -35 95 -8 34 -97
214 -129 261 -12 18 -30 45 -40 60 -31 52 -65 98 -96 134 -89 99 -206 217
-235 235 -43 26 -106 71 -157 113 -23 17 -46 32 -53 32 -6 0 -36 16 -65 35
-30 18 -68 37 -85 41 -17 3 -53 19 -81 34 -34 20 -76 32 -134 40 -46 6 -100
18 -120 25 -105 41 -320 56 -476 34z m-265 -761 c19 -14 52 -29 73 -33 21 -4
56 -23 78 -41 23 -19 45 -34 50 -34 16 0 89 -101 89 -124 0 -12 -9 -39 -21
-60 -11 -21 -27 -79 -35 -129 -8 -49 -25 -117 -39 -151 -13 -34 -31 -93 -39
-132 -8 -40 -24 -90 -35 -112 -11 -22 -28 -73 -37 -113 -9 -41 -26 -92 -39
-114 -13 -22 -28 -60 -34 -85 -7 -25 -25 -72 -42 -105 -22 -45 -30 -76 -31
-124 -2 -92 1 -93 182 -85 162 8 179 4 206 -48 34 -65 -9 -218 -68 -246 -21
-10 -116 -13 -387 -14 -324 -2 -361 0 -385 15 -20 14 -26 26 -26 55 0 53 26
136 54 169 12 15 30 48 40 72 10 25 26 57 36 71 10 14 26 46 36 71 10 24 26
56 36 71 10 15 25 46 33 69 9 24 26 56 39 73 13 17 33 53 44 79 12 26 30 59
41 73 11 14 25 50 31 80 7 30 21 76 33 102 16 36 21 66 21 132 0 79 -3 90 -37
151 -22 39 -46 69 -57 72 -30 8 -80 -9 -134 -45 -27 -18 -64 -42 -82 -53 -18
-12 -58 -46 -90 -78 -62 -62 -108 -80 -145 -56 -31 21 -90 162 -96 228 -5 51
-3 60 23 90 15 18 48 42 72 52 24 11 56 28 71 38 14 10 44 24 66 31 22 7 56
26 75 42 62 52 133 100 166 114 18 8 36 19 40 25 28 46 167 50 224 7z m1272
-107 c48 -5 87 -15 104 -27 14 -11 41 -28 59 -39 59 -36 133 -122 145 -167 7
-24 22 -59 33 -78 19 -30 23 -53 26 -157 3 -119 2 -124 -27 -185 -16 -35 -35
-79 -41 -98 -14 -44 -100 -129 -166 -166 -126 -69 -104 -64 -305 -65 -234 0
-275 -7 -312 -48 l-28 -31 0 -228 c0 -163 -4 -234 -13 -252 -19 -38 -63 -54
-147 -54 -90 -1 -137 16 -148 53 -4 14 -7 360 -7 768 0 847 -9 773 93 784 76
9 637 1 734 -10z"></path>
<path d="M5724 2258 l-49 -33 -3 -155 c-1 -85 0 -165 3 -176 8 -35 72 -54 179
-54 106 0 237 22 272 45 62 40 89 170 56 265 -17 49 -24 58 -66 78 -62 29
-211 62 -285 62 -50 0 -66 -5 -107 -32z"></path>
</g>
</svg>