<svg width="100" height="100" xmlns="http://www.w3.org/2000/svg">
 <!-- Created with Method Draw - http://github.com/duopixel/Method-Draw/ -->

 <g>
  <title>background</title>
  <rect fill="#ffffff00" id="canvas_background" height="102" width="102" y="-1" x="-1"/>
  <g display="none" overflow="visible" y="0" x="0" height="100%" width="100%" id="canvasGrid">
   <rect fill="url(#gridpattern)" stroke-width="0" y="0" x="0" height="100%" width="100%"/>
  </g>
 </g>
 <g>
  <title>Layer 1</title>
  <metadata transform="matrix(0.08163266035975258,0,0,0.08163266035975258,0,0) ">Created by potrace 1.12, written by Peter Selinger 2001-2015</metadata>
  <g stroke="null" id="svg_8">
   <g id="svg_4" fill="#fff" transform="matrix(0.013307915343500716,0,0,-0.013755996348391506,0,96.2919735347424) ">
    <path stroke="null" id="svg_5" d="m1701.69389,6022.27498c-205,-43 -387,-118 -542,-221c-91,-61 -200,-163 -240,-227c-44,-69 -129,-238 -178,-353c-25,-60 -50,-118 -56,-129c-14,-31 -120,-325 -135,-375c-7,-25 -23,-76 -34,-115c-144,-473 -207,-814 -251,-1375c-25,-321 16,-793 94,-1065c26,-94 92,-218 146,-277c58,-64 112,-94 198,-110c140,-26 372,80 648,296c82,64 296,245 320,270c52,55 246,210 335,268c164,107 441,206 665,238c39,5 97,14 129,20c117,19 501,33 768,27l267,-6l21,57c22,61 22,61 69,165c44,98 149,269 222,362c250,319 603,549 1009,658c284,77 688,73 954,-9c102,-32 171,-55 191,-63c11,-5 50,-23 88,-40c66,-30 87,-37 87,-25c0,9 -40,185 -52,229c-6,22 -17,65 -24,95c-19,78 -49,192 -57,210c-3,8 -11,35 -17,60c-17,65 -120,368 -136,399c-8,14 -14,31 -14,37c0,16 -68,173 -148,344c-99,211 -189,324 -334,422c-73,49 -256,148 -273,148c-4,0 -21,6 -38,14c-121,54 -333,96 -484,96c-185,0 -271,-28 -393,-129c-82,-67 -176,-117 -285,-151c-38,-11 -84,-25 -101,-31c-31,-9 -169,-32 -309,-51c-104,-14 -686,-14 -790,0c-367,50 -552,112 -691,233c-109,96 -213,129 -400,128c-84,0 -151,-7 -229,-24z"/>
    <path stroke="null" id="svg_6" d="m5391.69388,3957.27498c-418,-60 -789,-270 -1056,-596c-196,-240 -327,-553 -359,-854c-83,-800 393,-1527 1155,-1764c182,-56 217,-61 485,-60c243,0 260,1 361,27c438,110 781,348 1020,707c93,140 200,394 229,545c7,33 16,78 21,100c11,52 11,468 0,520c-5,22 -14,66 -21,98c-41,210 -180,499 -319,667c-286,345 -642,548 -1071,610c-74,11 -370,11 -445,0zm-326,-864c21,-19 21,-23 21,-771c0,-879 14,-788 -126,-794c-94,-3 -125,2 -148,25c-14,14 -16,75 -16,524c0,492 -4,560 -31,560c-6,0 -48,-24 -92,-54c-92,-61 -202,-116 -232,-116c-37,0 -45,20 -45,110c0,105 17,138 89,174c129,66 249,169 317,271c51,78 87,97 176,93c48,-3 72,-9 87,-22zm1466,-16c214,-82 316,-276 285,-540c-20,-162 -107,-284 -253,-354c-63,-31 -89,-37 -188,-46c-63,-5 -176,-10 -251,-10c-130,0 -138,-1 -165,-24l-28,-24l-5,-261c-4,-218 -8,-263 -20,-271c-26,-17 -76,-22 -164,-19c-140,6 -126,-84 -126,787l0,746l23,24l22,24l405,-5c393,-4 407,-5 465,-27z"/>
    <path stroke="null" id="svg_7" d="m5956.69389,2818.27498l-31,-31l3,-175c3,-165 4,-176 25,-197c29,-28 101,-33 268,-20c141,11 189,30 234,92c16,22 34,63 41,90c23,94 -33,199 -130,242c-38,17 -73,22 -212,26l-167,5l-31,-32z"/>
   </g>
  </g>
 </g>
</svg>